name Walk4.mot
datacolumns 19
datarows 12
range 1.62500000 1.63600000
endheader

                time	   L_ground_force_vx	   L_ground_force_vy	   L_ground_force_vz	   L_ground_force_px	   L_ground_force_py	   L_ground_force_pz	   R_ground_force_vx	   R_ground_force_vy	   R_ground_force_vz	   R_ground_force_px	   R_ground_force_py	   R_ground_force_pz	   L_ground_torque_x	   L_ground_torque_y	   L_ground_torque_z	   R_ground_torque_x	   R_ground_torque_y	   R_ground_torque_z	
          1.62500000	         -0.07875058	          0.65073048	         -0.04697779	          0.00054264	          0.00000000	          0.00032074	         22.97614528	        683.59625770	        -15.26214151	         -0.09333088	          0.00000000	          0.35357897	          0.00000000	         -0.00049784	          0.00000000	          0.00000000	          0.65886347	          0.00000000	
          1.62600000	         -0.08239460	          0.65097286	         -0.04568528	          0.00052467	          0.00000000	          0.00030840	         23.67082999	        685.89010197	        -15.22960775	         -0.09317779	          0.00000000	          0.35352311	          0.00000000	         -0.00051505	          0.00000000	          0.00000000	          0.66130986	          0.00000000	
          1.62700000	         -0.08603695	          0.64854930	         -0.04408399	          0.00050286	          0.00000000	          0.00029365	         24.37634339	        688.17273739	        -15.19711523	         -0.09302824	          0.00000000	          0.35346791	          0.00000000	         -0.00053173	          0.00000000	          0.00000000	          0.66399902	          0.00000000	
          1.62800000	         -0.08966245	          0.64322209	         -0.04215183	          0.00047695	          0.00000000	          0.00027630	         25.09260586	        690.44336362	        -15.16469151	         -0.09288217	          0.00000000	          0.35341336	          0.00000000	         -0.00054776	          0.00000000	          0.00000000	          0.66694308	          0.00000000	
          1.62900000	         -0.09325454	          0.63474339	         -0.03986604	          0.00044667	          0.00000000	          0.00025621	         25.81954688	        692.70117848	        -15.13236400	         -0.09273950	          0.00000000	          0.35335948	          0.00000000	         -0.00056302	          0.00000000	          0.00000000	          0.67015381	          0.00000000	
          1.63000000	         -0.09679530	          0.62285538	         -0.03720321	          0.00041172	          0.00000000	          0.00023319	         26.55710567	        694.94537968	        -15.10015959	         -0.09260019	          0.00000000	          0.35330625	          0.00000000	         -0.00057737	          0.00000000	          0.00000000	          0.67364219	          0.00000000	
          1.63100000	         -0.10026533	          0.60729034	         -0.03413928	          0.00037183	          0.00000000	          0.00020706	         27.30523083	        697.17516571	        -15.06810441	         -0.09246417	          0.00000000	          0.35325367	          0.00000000	         -0.00059067	          0.00000000	          0.00000000	          0.67741822	          0.00000000	
          1.63200000	         -0.10364373	          0.58777086	         -0.03064965	          0.00032669	          0.00000000	          0.00017766	         28.06387878	        699.38973574	        -15.03622356	         -0.09233136	          0.00000000	          0.35320173	          0.00000000	         -0.00060277	          0.00000000	          0.00000000	          0.68149088	          0.00000000	
          1.63300000	         -0.10690802	          0.56401009	         -0.02670916	          0.00027601	          0.00000000	          0.00014479	         28.83301162	        701.58828887	        -15.00454070	         -0.09220172	          0.00000000	          0.35315040	          0.00000000	         -0.00061350	          0.00000000	          0.00000000	          0.68586824	          0.00000000	
          1.63400000	         -0.11003413	          0.53571204	         -0.02229219	          0.00021948	          0.00000000	          0.00010826	         29.61259460	        703.77002333	        -14.97307733	         -0.09207517	          0.00000000	          0.35309967	          0.00000000	         -0.00062270	          0.00000000	          0.00000000	          0.69055774	          0.00000000	
          1.63500000	         -0.11299630	          0.50257196	         -0.01737271	          0.00015680	          0.00000000	          0.00006790	         30.40259358	        705.93413634	        -14.94185197	         -0.09195166	          0.00000000	          0.35304950	          0.00000000	         -0.00063017	          0.00000000	          0.00000000	          0.69556649	          0.00000000	
          1.63600000	         -0.11576706	          0.46427675	         -0.01192435	          0.00008764	          0.00000000	          0.00002350	         31.20297259	        708.07982528	        -14.91087910	         -0.09183111	          0.00000000	          0.35299989	          0.00000000	         -0.00063575	          0.00000000	          0.00000000	          0.70090161	          0.00000000	
